<?xml version="1.0" encoding="UTF-8"?>
<svg width="181px" height="177px" viewBox="0 0 181 177" version="1.1" xmlns="http://www.w3.org/2000/svg" xmlns:xlink="http://www.w3.org/1999/xlink">
    <!-- Generator: Sketch 61.2 (89653) - https://sketch.com -->
    <title>Slice 1</title>
    <desc>Created with Sketch.</desc>
    <defs>
        <path d="M46.411,155 C49.0856667,155 51.7603333,154.577167 54.435,153.7315 C57.1096667,152.885833 59.5286667,151.6075 61.692,149.8965 C63.8553333,148.1855 65.6056667,146.022167 66.943,143.4065 C68.2803333,140.790833 68.949,137.693333 68.949,134.114 C68.949,130.416667 68.2803333,127.250333 66.943,124.615 C65.6056667,121.979667 63.8553333,119.816333 61.692,118.125 C59.5286667,116.433667 57.1096667,115.194667 54.435,114.408 C51.7603333,113.621333 49.0856667,113.228 46.411,113.228 L46.411,113.228 L32.074,113.228 L32.074,155 L46.411,155 Z M45.231,149.867 L37.915,149.867 L37.915,118.302 L45.231,118.302 C47.7483333,118.302 50.0788333,118.646167 52.2225,119.3345 C54.3661667,120.022833 56.2148333,121.025833 57.7685,122.3435 C59.3221667,123.661167 60.5316667,125.303333 61.397,127.27 C62.2623333,129.236667 62.695,131.518 62.695,134.114 C62.695,136.592 62.2623333,138.814333 61.397,140.781 C60.5316667,142.747667 59.3221667,144.399667 57.7685,145.737 C56.2148333,147.074333 54.3661667,148.097 52.2225,148.805 C50.0788333,149.513 47.7483333,149.867 45.231,149.867 L45.231,149.867 Z M84.761,155.708 C86.885,155.708 88.7238333,155.295 90.2775,154.469 C91.8311667,153.643 93.1193333,152.482667 94.142,150.988 L94.142,150.988 L94.319,150.988 C94.319,152.325333 94.4763333,153.662667 94.791,155 L94.791,155 L99.806,155 C99.6486667,154.331333 99.5405,153.475833 99.4815,152.4335 C99.4225,151.391167 99.393,150.398 99.393,149.454 L99.393,149.454 L99.393,137.241 C99.393,135.707 99.157,134.271333 98.685,132.934 C98.213,131.596667 97.505,130.436333 96.561,129.453 C95.617,128.469667 94.4075,127.692833 92.9325,127.1225 C91.4575,126.552167 89.717,126.267 87.711,126.267 C85.4296667,126.267 83.2958333,126.640667 81.3095,127.388 C79.3231667,128.135333 77.6416667,129.158 76.265,130.456 L76.265,130.456 L79.215,133.996 C80.159,133.052 81.3291667,132.275167 82.7255,131.6655 C84.1218333,131.055833 85.6066667,130.751 87.18,130.751 C89.2646667,130.751 90.9363333,131.2525 92.195,132.2555 C93.4536667,133.2585 94.083,134.802333 94.083,136.887 L94.083,136.887 L94.083,137.654 C91.723,137.654 89.3826667,137.752333 87.062,137.949 C84.7413333,138.145667 82.6566667,138.5685 80.808,139.2175 C78.9593333,139.8665 77.4646667,140.8105 76.324,142.0495 C75.1833333,143.2885 74.613,144.97 74.613,147.094 C74.613,148.706667 74.9375,150.063667 75.5865,151.165 C76.2355,152.266333 77.0516667,153.151333 78.035,153.82 C79.0183333,154.488667 80.1098333,154.9705 81.3095,155.2655 C82.5091667,155.5605 83.6596667,155.708 84.761,155.708 Z M86,151.342 C85.292,151.342 84.6036667,151.273167 83.935,151.1355 C83.2663333,150.997833 82.6566667,150.752 82.106,150.398 C81.5553333,150.044 81.1128333,149.591667 80.7785,149.041 C80.4441667,148.490333 80.277,147.802 80.277,146.976 C80.277,145.796 80.6703333,144.852 81.457,144.144 C82.2436667,143.436 83.2368333,142.905 84.4365,142.551 C85.6361667,142.197 86.9735,141.961 88.4485,141.843 C89.9235,141.725 91.3493333,141.666 92.726,141.666 L92.726,141.666 L94.083,141.666 L94.083,143.141 C94.083,145.501 93.3848333,147.457833 91.9885,149.0115 C90.5921667,150.565167 88.596,151.342 86,151.342 Z M109.777,169.16 C111.153667,169.16 112.3435,168.983 113.3465,168.629 C114.3495,168.275 115.224667,167.7735 115.972,167.1245 C116.719333,166.4755 117.368333,165.688833 117.919,164.7645 C118.469667,163.840167 118.981,162.788 119.453,161.608 L119.453,161.608 L133.023,127.034 L127.123,127.034 L119.394,148.982 L119.276,148.982 L110.603,127.034 L104.408,127.034 L116.385,155 L114.615,159.661 C114.025,161.155667 113.376,162.306167 112.668,163.1125 C111.96,163.918833 110.878333,164.322 109.423,164.322 C108.518333,164.322 107.594,164.164667 106.65,163.85 L106.65,163.85 L106.119,168.747 C106.748333,168.904333 107.367833,169.0125 107.9775,169.0715 C108.587167,169.1305 109.187,169.16 109.777,169.16 Z M146.416,155.767 C147.832,155.767 149.208667,155.609667 150.546,155.295 C151.883333,154.980333 153.073167,154.459167 154.1155,153.7315 C155.157833,153.003833 155.993667,152.069667 156.623,150.929 C157.252333,149.788333 157.567,148.392 157.567,146.74 C157.567,145.520667 157.331,144.458667 156.859,143.554 C156.387,142.649333 155.728167,141.8725 154.8825,141.2235 C154.036833,140.5745 153.043667,140.033667 151.903,139.601 C150.762333,139.168333 149.523333,138.794667 148.186,138.48 C146.062,138.008 144.469,137.486833 143.407,136.9165 C142.345,136.346167 141.814,135.471 141.814,134.291 C141.814,133.622333 141.9615,133.061833 142.2565,132.6095 C142.5515,132.157167 142.944833,131.7835 143.4365,131.4885 C143.928167,131.1935 144.488667,130.977167 145.118,130.8395 C145.747333,130.701833 146.376667,130.633 147.006,130.633 C148.422,130.633 149.700333,130.9575 150.841,131.6065 C151.981667,132.2555 152.866667,133.091333 153.496,134.114 L153.496,134.114 L157.331,130.869 C156.308333,129.374333 154.862833,128.233667 152.9945,127.447 C151.126167,126.660333 149.189,126.267 147.183,126.267 C145.845667,126.267 144.547667,126.434167 143.289,126.7685 C142.030333,127.102833 140.909333,127.614167 139.926,128.3025 C138.942667,128.990833 138.146167,129.875833 137.5365,130.9575 C136.926833,132.039167 136.622,133.327333 136.622,134.822 C136.622,136.12 136.867833,137.2115 137.3595,138.0965 C137.851167,138.9815 138.490333,139.719 139.277,140.309 C140.063667,140.899 140.938833,141.361167 141.9025,141.6955 C142.866167,142.029833 143.82,142.315 144.764,142.551 C147.163333,143.101667 148.9825,143.691667 150.2215,144.321 C151.4605,144.950333 152.08,145.914 152.08,147.212 C152.08,147.998667 151.922667,148.647667 151.608,149.159 C151.293333,149.670333 150.8705,150.083333 150.3395,150.398 C149.8085,150.712667 149.2185,150.938833 148.5695,151.0765 C147.9205,151.214167 147.242,151.283 146.534,151.283 C144.960667,151.283 143.515167,150.909333 142.1975,150.162 C140.879833,149.414667 139.847333,148.490333 139.1,147.389 L139.1,147.389 L135.147,150.752 C136.484333,152.443333 138.165833,153.702 140.1915,154.528 C142.217167,155.354 144.292,155.767 146.416,155.767 Z" id="path-1"></path>
        <path d="M109.745,113 L109.745,107.808 L87.915,107.808 L87.915,93.884 L107.621,93.884 L107.621,88.869 L87.915,88.869 L87.915,76.361 L108.86,76.361 L108.86,71.228 L82.074,71.228 L82.074,113 L109.745,113 Z M122.902,113 L122.902,68.396 L117.356,68.396 L117.356,113 L122.902,113 Z M138.124,113 L138.124,98.132 C138.124,95.3393333 138.8025,93.1071667 140.1595,91.4355 C141.5165,89.7638333 143.217667,88.928 145.263,88.928 C146.364333,88.928 147.288667,89.1148333 148.036,89.4885 C148.783333,89.8621667 149.393,90.3735 149.865,91.0225 C150.337,91.6715 150.671333,92.4483333 150.868,93.353 C151.064667,94.2576667 151.163,95.2606667 151.163,96.362 L151.163,96.362 L151.163,113 L156.709,113 L156.709,97.896 C156.709,96.7946667 156.836833,95.713 157.0925,94.651 C157.348167,93.589 157.761167,92.6351667 158.3315,91.7895 C158.901833,90.9438333 159.639333,90.2555 160.544,89.7245 C161.448667,89.1935 162.530333,88.928 163.789,88.928 C165.008333,88.928 166.011333,89.164 166.798,89.636 C167.584667,90.108 168.214,90.7373333 168.686,91.524 C169.158,92.3106667 169.492333,93.2153333 169.689,94.238 C169.885667,95.2606667 169.984,96.3423333 169.984,97.483 L169.984,97.483 L169.984,113 L175.53,113 L175.53,95.654 C175.53,94.0806667 175.3235,92.6056667 174.9105,91.229 C174.4975,89.8523333 173.858333,88.6526667 172.993,87.63 C172.127667,86.6073333 171.046,85.7911667 169.748,85.1815 C168.45,84.5718333 166.896333,84.267 165.087,84.267 C163.081,84.267 161.232333,84.7488333 159.541,85.7125 C157.849667,86.6761667 156.532,88.0626667 155.588,89.872 C154.722667,87.866 153.532833,86.4303333 152.0185,85.565 C150.504167,84.6996667 148.803,84.267 146.915,84.267 C144.791,84.267 142.952167,84.7881667 141.3985,85.8305 C139.844833,86.8728333 138.714,88.1413333 138.006,89.636 L138.006,89.636 L137.829,89.636 C137.829,89.046 137.809333,88.3085 137.77,87.4235 C137.730667,86.5385 137.671667,85.742 137.593,85.034 L137.593,85.034 L132.342,85.034 C132.420667,85.9386667 132.479667,86.981 132.519,88.161 C132.558333,89.341 132.578,90.3046667 132.578,91.052 L132.578,91.052 L132.578,113 L138.124,113 Z" id="path-2"></path>
        <path d="M25.016,60.062 C28.202,60.062 31.152,59.5211667 33.866,58.4395 C36.58,57.3578333 38.9203333,55.8435 40.887,53.8965 C42.8536667,51.9495 44.3975,49.6288333 45.5185,46.9345 C46.6395,44.2401667 47.2,41.2803333 47.2,38.055 C47.2,34.7903333 46.6395,31.8108333 45.5185,29.1165 C44.3975,26.4221667 42.8536667,24.1211667 40.887,22.2135 C38.9203333,20.3058333 36.58,18.821 33.866,17.759 C31.152,16.697 28.202,16.166 25.016,16.166 C21.83,16.166 18.8898333,16.697 16.1955,17.759 C13.5011667,18.821 11.1706667,20.3058333 9.204,22.2135 C7.23733333,24.1211667 5.70333333,26.4221667 4.602,29.1165 C3.50066667,31.8108333 2.95,34.7903333 2.95,38.055 C2.95,41.2803333 3.50066667,44.2401667 4.602,46.9345 C5.70333333,49.6288333 7.23733333,51.9495 9.204,53.8965 C11.1706667,55.8435 13.5011667,57.3578333 16.1955,58.4395 C18.8898333,59.5211667 21.83,60.062 25.016,60.062 Z M25.016,54.811 C22.6166667,54.811 20.4533333,54.3783333 18.526,53.513 C16.5986667,52.6476667 14.9466667,51.4578333 13.57,49.9435 C12.1933333,48.4291667 11.1313333,46.6493333 10.384,44.604 C9.63666667,42.5586667 9.263,40.3756667 9.263,38.055 C9.263,35.7736667 9.63666667,33.6201667 10.384,31.5945 C11.1313333,29.5688333 12.1835,27.789 13.5405,26.255 C14.8975,24.721 16.5495,23.5115 18.4965,22.6265 C20.4435,21.7415 22.6166667,21.299 25.016,21.299 C27.4546667,21.299 29.6475,21.7415 31.5945,22.6265 C33.5415,23.5115 35.2033333,24.721 36.58,26.255 C37.9566667,27.789 39.0186667,29.5688333 39.766,31.5945 C40.5133333,33.6201667 40.887,35.7736667 40.887,38.055 C40.887,40.3756667 40.5133333,42.5586667 39.766,44.604 C39.0186667,46.6493333 37.9566667,48.4291667 36.58,49.9435 C35.2033333,51.4578333 33.5316667,52.6476667 31.565,53.513 C29.5983333,54.3783333 27.4153333,54.811 25.016,54.811 Z M62.894,59.767 C64.31,59.767 65.6866667,59.6096667 67.024,59.295 C68.3613333,58.9803333 69.5511667,58.4591667 70.5935,57.7315 C71.6358333,57.0038333 72.4716667,56.0696667 73.101,54.929 C73.7303333,53.7883333 74.045,52.392 74.045,50.74 C74.045,49.5206667 73.809,48.4586667 73.337,47.554 C72.865,46.6493333 72.2061667,45.8725 71.3605,45.2235 C70.5148333,44.5745 69.5216667,44.0336667 68.381,43.601 C67.2403333,43.1683333 66.0013333,42.7946667 64.664,42.48 C62.54,42.008 60.947,41.4868333 59.885,40.9165 C58.823,40.3461667 58.292,39.471 58.292,38.291 C58.292,37.6223333 58.4395,37.0618333 58.7345,36.6095 C59.0295,36.1571667 59.4228333,35.7835 59.9145,35.4885 C60.4061667,35.1935 60.9666667,34.9771667 61.596,34.8395 C62.2253333,34.7018333 62.8546667,34.633 63.484,34.633 C64.9,34.633 66.1783333,34.9575 67.319,35.6065 C68.4596667,36.2555 69.3446667,37.0913333 69.974,38.114 L69.974,38.114 L73.809,34.869 C72.7863333,33.3743333 71.3408333,32.2336667 69.4725,31.447 C67.6041667,30.6603333 65.667,30.267 63.661,30.267 C62.3236667,30.267 61.0256667,30.4341667 59.767,30.7685 C58.5083333,31.1028333 57.3873333,31.6141667 56.404,32.3025 C55.4206667,32.9908333 54.6241667,33.8758333 54.0145,34.9575 C53.4048333,36.0391667 53.1,37.3273333 53.1,38.822 C53.1,40.12 53.3458333,41.2115 53.8375,42.0965 C54.3291667,42.9815 54.9683333,43.719 55.755,44.309 C56.5416667,44.899 57.4168333,45.3611667 58.3805,45.6955 C59.3441667,46.0298333 60.298,46.315 61.242,46.551 C63.6413333,47.1016667 65.4605,47.6916667 66.6995,48.321 C67.9385,48.9503333 68.558,49.914 68.558,51.212 C68.558,51.9986667 68.4006667,52.6476667 68.086,53.159 C67.7713333,53.6703333 67.3485,54.0833333 66.8175,54.398 C66.2865,54.7126667 65.6965,54.9388333 65.0475,55.0765 C64.3985,55.2141667 63.72,55.283 63.012,55.283 C61.4386667,55.283 59.9931667,54.9093333 58.6755,54.162 C57.3578333,53.4146667 56.3253333,52.4903333 55.578,51.389 L55.578,51.389 L51.625,54.752 C52.9623333,56.4433333 54.6438333,57.702 56.6695,58.528 C58.6951667,59.354 60.77,59.767 62.894,59.767 Z M86.73,59 L86.73,14.396 L81.184,14.396 L81.184,59 L86.73,59 Z M109.622,59.767 C111.746,59.767 113.732333,59.4031667 115.581,58.6755 C117.429667,57.9478333 119.0325,56.9251667 120.3895,55.6075 C121.7465,54.2898333 122.8085,52.7263333 123.5755,50.917 C124.3425,49.1076667 124.726,47.1213333 124.726,44.958 C124.726,42.7946667 124.3425,40.8181667 123.5755,39.0285 C122.8085,37.2388333 121.7465,35.695 120.3895,34.397 C119.0325,33.099 117.429667,32.0861667 115.581,31.3585 C113.732333,30.6308333 111.746,30.267 109.622,30.267 C107.498,30.267 105.511667,30.6308333 103.663,31.3585 C101.814333,32.0861667 100.221333,33.099 98.884,34.397 C97.5466667,35.695 96.4945,37.2388333 95.7275,39.0285 C94.9605,40.8181667 94.577,42.7946667 94.577,44.958 C94.577,47.1213333 94.9605,49.1076667 95.7275,50.917 C96.4945,52.7263333 97.5466667,54.2898333 98.884,55.6075 C100.221333,56.9251667 101.814333,57.9478333 103.663,58.6755 C105.511667,59.4031667 107.498,59.767 109.622,59.767 Z M109.622,55.106 C108.127333,55.106 106.799833,54.8306667 105.6395,54.28 C104.479167,53.7293333 103.505667,52.982 102.719,52.038 C101.932333,51.094 101.3325,50.0123333 100.9195,48.793 C100.5065,47.5736667 100.3,46.2953333 100.3,44.958 C100.3,43.6206667 100.5065,42.3423333 100.9195,41.123 C101.3325,39.9036667 101.932333,38.8318333 102.719,37.9075 C103.505667,36.9831667 104.479167,36.2456667 105.6395,35.695 C106.799833,35.1443333 108.127333,34.869 109.622,34.869 C111.116667,34.869 112.444167,35.1443333 113.6045,35.695 C114.764833,36.2456667 115.738333,36.9831667 116.525,37.9075 C117.311667,38.8318333 117.9115,39.9036667 118.3245,41.123 C118.7375,42.3423333 118.944,43.6206667 118.944,44.958 C118.944,46.2953333 118.7375,47.5736667 118.3245,48.793 C117.9115,50.0123333 117.311667,51.094 116.525,52.038 C115.738333,52.982 114.764833,53.7293333 113.6045,54.28 C112.444167,54.8306667 111.116667,55.106 109.622,55.106 Z" id="path-3"></path>
    </defs>
    <g id="Page-1" stroke="none" stroke-width="1" fill="none" fill-rule="evenodd">
        <g id="Logo---Vectorized" fill-rule="nonzero">
            <g id="Days">
                <use fill="#FFFFFF" xlink:href="#path-1"></use>
                <use fill="#06354D" xlink:href="#path-1"></use>
            </g>
            <g id="Elm">
                <use fill="#FFFFFF" xlink:href="#path-2"></use>
                <use fill="#06354D" xlink:href="#path-2"></use>
            </g>
            <g id="Oslo">
                <use fill="#FFFFFF" xlink:href="#path-3"></use>
                <use fill="#06354D" xlink:href="#path-3"></use>
            </g>
        </g>
    </g>
</svg>